<?xml version="1.0" standalone="no"?>
<!DOCTYPE svg PUBLIC "-//W3C//DTD SVG 20010904//EN"
 "http://www.w3.org/TR/2001/REC-SVG-20010904/DTD/svg10.dtd">
<svg version="1.0" xmlns="http://www.w3.org/2000/svg"
 width="277.000000pt" height="80.000000pt" viewBox="0 0 277.000000 80.000000"
 preserveAspectRatio="xMidYMid meet">

<g transform="translate(0.000000,80.000000) scale(0.100000,-0.100000)"
fill="#000000" stroke="none">
<path d="M455 791 c-164 -43 -254 -212 -199 -373 32 -96 132 -172 242 -185 29
-3 52 -9 52 -14 0 -16 -81 -76 -119 -87 -47 -15 -104 -15 -152 -2 -69 19 -144
102 -163 183 -13 56 -97 59 -111 4 -8 -30 26 -121 65 -174 67 -91 207 -152
320 -139 61 7 142 41 195 81 71 55 140 199 115 244 -15 28 -52 36 -87 18 -130
-68 -283 23 -283 168 0 145 153 236 283 168 17 -8 40 -12 54 -8 20 5 24 11 21
38 -3 27 -10 36 -50 55 -50 25 -135 36 -183 23z"/>
<path d="M1019 670 c-97 -28 -142 -136 -93 -221 33 -55 80 -81 139 -77 28 2
62 12 78 22 24 17 27 24 27 77 l0 59 -65 0 c-51 0 -65 -3 -65 -15 0 -11 12
-15 45 -15 l45 0 0 -39 c0 -33 -4 -40 -30 -51 -95 -39 -190 69 -145 164 29 60
112 86 159 51 25 -19 46 -19 46 0 0 29 -92 59 -141 45z"/>
<path d="M1612 668 c-18 -18 -16 -272 2 -287 9 -8 43 -11 93 -9 61 2 78 6 78
18 0 12 -16 16 -72 18 l-73 3 0 129 c0 127 -5 151 -28 128z"/>
<path d="M2204 665 c-4 -9 14 -38 46 -74 l51 -60 -55 -67 c-31 -38 -56 -74
-56 -81 0 -29 31 -9 80 52 l51 65 55 -65 c31 -36 59 -65 64 -65 25 0 17 26
-22 73 -78 93 -75 79 -23 146 34 43 45 66 40 78 -6 16 -9 15 -33 -12 -15 -17
-39 -45 -53 -63 l-26 -33 -44 55 c-49 61 -67 73 -75 51z"/>
<path d="M2514 667 c-4 -10 15 -44 50 -94 54 -75 56 -80 56 -141 0 -55 2 -63
18 -60 14 3 18 16 20 67 3 60 7 70 53 133 60 83 65 94 45 101 -10 4 -31 -15
-66 -63 -27 -39 -52 -70 -53 -70 -2 0 -20 24 -41 54 -20 29 -46 62 -56 71 -18
16 -20 16 -26 2z"/>
<path d="M1345 658 c-2 -7 -25 -69 -50 -137 -25 -69 -45 -130 -45 -138 0 -30
30 -10 49 32 l20 45 66 0 66 0 20 -45 c18 -42 49 -62 49 -32 0 7 -22 73 -49
147 l-49 135 -36 3 c-23 2 -38 -2 -41 -10z m73 -94 c12 -34 22 -64 22 -68 0
-3 -25 -6 -55 -6 -30 0 -55 3 -55 8 0 4 9 32 20 62 12 30 23 61 26 69 7 21 18
4 42 -65z"/>
<path d="M1906 543 c-52 -140 -57 -164 -39 -170 8 -3 21 14 33 41 l19 46 69 0
69 0 17 -45 c17 -44 46 -62 46 -27 -1 9 -22 75 -49 147 l-47 130 -36 3 -35 3
-47 -128z m113 24 c11 -32 21 -62 21 -67 0 -6 -25 -10 -55 -10 -30 0 -55 2
-55 4 0 20 54 145 60 139 4 -4 17 -34 29 -66z"/>
<path d="M487 603 c-4 -3 -7 -46 -7 -95 0 -68 3 -90 14 -94 21 -8 180 77 184
98 2 13 -18 28 -77 58 -80 40 -102 46 -114 33z"/>
<path d="M1100 210 c0 -5 16 -10 35 -10 l34 0 3 -97 c4 -127 22 -125 26 2 l3
95 34 0 c19 0 35 5 35 10 0 6 -35 10 -85 10 -50 0 -85 -4 -85 -10z"/>
<path d="M1304 207 c-9 -24 1 -202 11 -202 6 0 11 17 13 37 3 34 6 38 30 38
20 0 34 -11 56 -41 18 -27 32 -37 38 -31 7 7 2 21 -13 41 l-23 31 22 23 c27
29 28 71 2 97 -24 24 -127 29 -136 7z m120 -28 c27 -39 3 -69 -56 -69 l-38 0
0 45 0 45 39 0 c29 0 44 -6 55 -21z"/>
<path d="M1559 193 c-34 -89 -59 -162 -59 -177 0 -26 15 -18 31 17 13 29 19
32 62 35 46 3 48 2 62 -32 15 -36 35 -48 35 -22 0 12 -29 96 -62 179 -7 19
-18 27 -34 27 -17 0 -28 -8 -35 -27z m59 -50 l20 -53 -44 0 -43 0 15 43 c23
68 24 70 28 66 2 -2 13 -28 24 -56z"/>
<path d="M1740 110 c0 -67 4 -110 10 -110 6 0 10 43 10 110 0 67 -4 110 -10
110 -6 0 -10 -43 -10 -110z"/>
<path d="M1820 110 c0 -134 18 -149 22 -17 l3 92 60 -87 c45 -66 65 -87 80
-85 18 2 20 9 20 101 0 69 -4 101 -12 103 -9 3 -13 -20 -15 -84 l-3 -88 -60
87 c-84 123 -95 120 -95 -22z"/>
<path d="M2062 113 c2 -64 7 -108 13 -108 6 0 11 44 13 108 2 92 0 107 -13
107 -13 0 -15 -15 -13 -107z"/>
<path d="M2150 110 c0 -134 18 -149 22 -17 l3 92 60 -87 c83 -122 95 -119 95
17 0 63 -4 105 -10 105 -6 0 -10 -36 -10 -87 l-1 -88 -25 30 c-13 17 -41 56
-62 87 -22 34 -44 58 -54 58 -16 0 -18 -12 -18 -110z"/>
<path d="M2424 202 c-53 -42 -60 -118 -15 -162 37 -38 73 -46 119 -28 35 13
37 17 40 61 l3 47 -45 0 c-26 0 -46 -4 -46 -10 0 -5 14 -10 30 -10 27 0 30 -3
30 -30 0 -23 -6 -33 -25 -40 -48 -18 -106 24 -107 78 -2 66 55 107 116 84 36
-14 48 -6 22 14 -27 19 -96 17 -122 -4z"/>
</g>
</svg>
